<svg xmlns="http://www.w3.org/2000/svg" viewBox="0 0 512 512"><defs><linearGradient id="s" x1="0" y1="0" x2="0" y2="1"><stop offset="0%" stop-color="#1a2845"/><stop offset="35%" stop-color="#3d2a3e"/><stop offset="60%" stop-color="#a0654c"/><stop offset="80%" stop-color="#d4a574"/><stop offset="100%" stop-color="#e8c39e"/></linearGradient><radialGradient id="u" cx="50%" cy="50%" r="50%"><stop offset="0%" stop-color="#fff4dc"/><stop offset="40%" stop-color="#f4d4a0"/><stop offset="100%" stop-color="#d4a574" stop-opacity=".6"/></radialGradient><radialGradient id="h" cx="50%" cy="50%" r="50%"><stop offset="0%" stop-color="#f4d4a0" stop-opacity=".5"/><stop offset="100%" stop-color="#d4a574" stop-opacity="0"/></radialGradient><linearGradient id="g" x1="0" y1="0" x2="0" y2="1"><stop offset="0%" stop-color="#5c3a2e"/><stop offset="100%" stop-color="#2a1a14"/></linearGradient></defs><rect width="512" height="512" fill="url(#s)"/><circle cx="256" cy="320" r="240" fill="url(#h)"/><circle cx="256" cy="320" r="95" fill="url(#u)"/><path d="M0 360Q80 340 160 350Q256 360 352 345Q432 335 512 350L512 380Q432 365 352 375Q256 390 160 380Q80 370 0 390Z" fill="#7a4a32" opacity=".6"/><path d="M0 380L512 380L512 512L0 512Z" fill="url(#g)"/><g fill="#1a0e08" opacity=".9"><path d="M110 380L110 320Q105 305 100 305Q95 305 95 320L95 360L90 360Q78 360 78 348L78 332Q78 322 90 322L95 322L95 380Z"/><path d="M110 380L110 340L122 340Q134 340 134 352L134 380Z"/><path d="M380 380L380 290Q374 270 368 270Q362 270 362 290L362 380Z"/><path d="M380 380L380 320L394 320Q408 320 408 334L408 380Z"/><path d="M362 380L362 340L350 340Q338 340 338 352L338 380Z"/><path d="M440 380L440 350Q437 342 434 342Q431 342 431 350L431 380Z"/></g></svg>